<?xml version="1.0" encoding="utf-8"?>
<!-- Generator: Adobe Illustrator 24.3.0, SVG Export Plug-In . SVG Version: 6.00 Build 0)  -->
<svg version="1.1" id="Layer_1" xmlns="http://www.w3.org/2000/svg" xmlns:xlink="http://www.w3.org/1999/xlink" x="0px" y="0px"
	 viewBox="0 0 1000 1000" style="enable-background:new 0 0 1000 1000;" xml:space="preserve">
<style type="text/css">
	.st0{fill:#1C1B1B;}
	.st1{fill:#DDA63A;}
	.st2{fill:#FFFFFF;}
</style>
<rect class="st0" width="1000" height="1000"/>
<g>
	<g>
		<path class="st2" d="M304.89,454.93c4.15-4.36-41.51-62.4-64.2-66.97c0.44,0.29,14.47,9.37,23.02,20.85
			c0,0-56.08-28.71-110.24,14.86c0,0,14.69-54.08,64.71-64.84c0,0-4.09,8.47-4.3,16.84c0,0,12.71,0.29,39.06-9.97
			c26.34-10.27,56.35,3.88,75.51,23.67c0,0,18.12,20.89,29.74,53.33C344.16,442.21,318.98,445.12,304.89,454.93z"/>
		<path class="st2" d="M499.45,333.68c-99.81-79.39-203.29-14.01-204.76-13.06c30-1.3,53.47,18.08,53.47,18.08
			c-28.3-15.02-69.81-22.58-99.18-6.41c-29.37,16.17-26.7,36.51-26.7,36.51c7.05,1.96,28.38-8.07,28.38-8.07
			c43.86-16.96,84.3,26.22,84.3,26.22c45.49,58.91,30.44,80.99,37.5,82.15c30.5,0.73,69.18,24.88,69.18,24.88
			c4.9-79.35-115.79-123.5-115.79-123.5l31.92-12.67c-9.86,5.42-25.9,13.04-25.9,13.04c156.55,46.68,186.09,138.68,186.09,138.68
			c4.84-90.06-79.48-118.06-79.48-118.06c31.26-1.49,73.11,31.33,73.11,31.33c-25.56-87.06-117.16-95.51-117.16-95.51
			C447.18,306.59,498.66,333.27,499.45,333.68z"/>
	</g>
	<g>
		<g>
			<g>
				<g>
					<g>
						<g>
							<g>
								<g>
									<g>
										<g>
											<g>
												<g>
													<path class="st1" d="M268.4,452.77c0,0-23.98-8.4-21.86-17.55c0.37-1.61,1.6-2.36,3.38-2.49l-1.84-0.65
														c0,0,2.81-2.02,2.79-5.3c0,0,1.13,2.57-0.84,5.11c0,0,2.99,0.23,4.27-1.06c0,0-1.58,4.13,0.18,6.39
														c0,0,0.53-3.08,2.98-4.17c0,0,1.04,1.81,4.53,1.24c3.49-0.57,8.1-1.69,9.47-1.39c0,0,0.54,1.42-0.88,3.24
														c0,0,3.52-1.73,4.77-5.18l2.25-0.74l-2.8-4.16l-2.63,0.23l-1.96-0.99l-0.76-0.11c0,0-0.76-0.11-1.68-1.39l-0.63,0.21
														l-1.39,1.68l-1.45-0.8l-2.77,0.1l-0.61-0.75c0,0,5.16,0.1,6.96-1.2c0,0-0.33-2.18-3.88-3.23
														c-3.56-1.05-6.56-2.47-8.13-4.05c0,0-7.74-0.52-14.26-4.44c-6.51-3.92-7.59-8.61-7.59-8.61s0.7,12.56,17.82,15.42
														c0,0-2.87,0.56-6.86-1c0,0-1.43,0.74-3.79,0.66c0,0,1.15-0.23,1.7-0.95c0,0-5.71-2.61-7.7-5.1c0,0,1.18,3.31,4.57,5.4
														l-1.91,0.78c0,0,5.18,2.37,7.48,2.83c0,0-1.85,0.2-3.45-0.33c0,0-10.92,7.69-10.94,20.06
														c-0.01,9.12,6.82,14.79,11.02,17.37C241.97,457.83,254.42,452.16,268.4,452.77z"/>
													<path class="st2" d="M250.43,458.12c-11.45,3.42-20.18,8.38-26.46,13.03c0,0,2.65-3.84,3.88-7.01
														c-0.45,0.45-14.84,15.33-20.26,17.79c0.61-0.68,20.68-23.07,19.81-31.49c0,0-20.35,27.92-30.57,32.04l7.08-6.67
														c0,0,7.6-15.12,5.46-21.68c0,0-4.08,18.01-14.43,27.44c-10.35,9.42-16.04,12.17-16.04,12.17l-1.53,2.76l8.41-2.32
														c0,0-7.64,6.5-13.26,6.21l-4.23,3.02l-2.07,4.21l3.34,1.72l1.24-0.78l5.56,3.76l3.91-0.52c0,0,5.34,2.97,8.4,1.32
														c0,0-5.96-1.84-3.72-4.89c2.24-3.05,15.53-1.85,15.53-1.85s-8.55,12.98-19.1,12.64c0,0,7.71,6.43,14.5,5.09
														c0,0-2.75-4.49,0.98-7.11c3.75-2.63,7.12-4.11,7.12-4.11l2.72-4.66l3.34,1.72c0,0,0.17-3.94-3.17-5.92
														c0,0,6.17-1.42,7.38-2.88c0,0-3.95-4.49-4.07-7.9c0,0,4.68,9.34,8.68,6.83c15.13-9.49,24.3-12.62,24.98-12.92
														c2.1-2.55,7.06-7.99,6.96-7.96c-3.24,0.84-12.06,6.37-13.66,7.8c0.13-0.17,6.58-7.1,14.28-9.89
														c0.81-0.29,1.65-0.59,2.53-0.84c8.6-8.24,19.71-16.47,32.9-21.03C277.18,454.13,264.13,454.04,250.43,458.12z
														 M197.35,492.24l-3.81,2.98l-1.62-2.04l-2.59-0.17l0.29-0.64l11.01-1.94L197.35,492.24z"/>
												</g>
											</g>
										</g>
									</g>
									<path class="st1" d="M177.64,517.62c0,0-5.77,4.31-13.63,1.67c-7.86-2.64-12.06-0.2-17.1,0.29s-10.3-2.39-10.3-2.39
										s2.16,5.11,6.75,5.36c0,0-10.29,1.8-12.97-2.83c-2.68-4.62-0.08-9.22-0.08-9.22s-4.78,4.68-2.24,10.72
										c2.54,6.04,12.83,6.51,12.83,6.51s-6.6,4.11-11.14-0.08c0,0,3.13,5.9,11.15,4.27s6.28-8.9,14.56-8.51
										c0,0-6.49,3.19-4.86,9.12c0,0,2.19-7.21,11.07-7.05C170.56,525.65,176.66,523.79,177.64,517.62z"/>
								</g>
							</g>
						</g>
						<g>
							<path class="st2" d="M282.65,519.81c-4.78,6.27-3.37,14.63-4.07,21.96c0,0.01-0.01,0.03-0.01,0.04c0,0.1,0,0.2-0.01,0.29
								c-0.2,2.03-0.88,3.86-1.81,5.53c-2.32,4.1-6.27,7.03-8.87,8.64c-0.06,0.04-0.12,0.09-0.2,0.13
								c-0.45,0.28-0.84,0.51-1.17,0.68c-0.25,0.14-0.45,0.25-0.62,0.33c-0.32,0.17-0.49,0.55-0.42,0.9
								c0.1,0.42,0.51,0.69,0.94,0.65c4.18-0.38,7.01-3.05,7.01-3.05c-0.36,2.42-1.66,4.12-3,5.27c-0.85,0.75-1.71,1.26-2.33,1.58
								c-3.3,1.69,4.4,3.2,4.53,0.58c-0.09,1.85-1.78,3.23-3.47,3.95c-1.69,0.74-3.58,1.11-5.07,2.23
								c-1.01,0.77-1.77,1.82-2.49,2.88c-1.09,1.58-10.91,15.26-6.32,15.82c2.91,0.38,5.34-1.14,5.34-1.14
								c-0.49,2.91-2.82,4.11-4.79,4.78c-1.95,0.68-5.5,1.91-4.63,5.34c0.85,3.43,5.95,6.48,5.95,6.48
								c-4.28,1.45-8.67-0.48-10.29-1.33c-0.32-0.16-0.52-0.29-0.62-0.35c-0.01,0-0.01-0.01-0.03-0.01l-0.04,0.88
								c0,0.03-0.07,1.3-0.07,1.3c3.23,4.04,2.75,7.6,2.75,7.6s0,0-0.01-0.01c-1.75-3.52-6.37-4.63-6.37-4.63l-1.26,1.23
								c1.27,3.39,0.52,5.91,0.52,5.91c-0.65-2.19-4.01-4.11-4.01-4.11s-0.45,0.97-1.33,1.35v0.12c-0.07,0-0.13-0.03-0.2-0.06
								c-0.07,0.03-0.13,0.06-0.2,0.06v-0.12c-0.88-0.38-1.33-1.35-1.33-1.35s-3.36,1.92-4.01,4.11c0,0-0.75-2.52,0.52-5.91
								l-1.24-1.23c0,0-4.63,1.11-6.38,4.63c-0.03-0.29-0.36-3.72,2.75-7.58l-0.07-1.27c0-0.03-0.06-0.91-0.06-0.91
								s-0.01,0.01-0.03,0.01c-0.1,0.06-0.29,0.19-0.62,0.35c-1.62,0.85-6.01,2.78-10.29,1.33c0,0,5.09-3.05,5.96-6.48
								c0.85-3.43-2.68-4.66-4.65-5.34c-1.95-0.67-4.3-1.87-4.78-4.78c0,0,2.43,1.52,5.33,1.14c3.76-0.46-1.84-9.48-2.71-11
								c-2.06-3.66-4.91-8.08-9.25-9.18c-3.07-0.77-5.24-2.75-5.47-4.69c0,0,1.51,1.24,4.04,1.52c0.68,0.07,1.29-0.49,1.24-1.2
								c-0.03-0.39-0.3-0.72-0.68-0.91c-0.61-0.32-1.46-0.83-2.33-1.58c-1.33-1.14-2.63-2.85-3-5.27c0,0,2.82,2.68,7,3.05
								c2.07,0.22,0.03-1.88-0.61-2.23c-2.78-1.51-5.37-3.44-7.4-5.88c-3.72-4.5-3.95-9.58-4.33-15.14c-0.13-1.74-0.2-3.47-0.36-5.2
								c-0.09-0.85,0.04-3.69-0.45-4.56c1.59,1.65,2.36,3.92,2.87,6.17c0.54,2.3,0.84,4.67,1.77,6.85c0.9,2.07,2.33,3.91,4.14,5.27
								c1.95,1.46,5.02,2.45,6.72,0.06c-0.01-0.01-0.01-0.01-0.03-0.03c-0.01-0.01-0.04-0.06-0.06-0.1
								c-0.69-1.09-5.3-8.45-7.53-17.99v-0.01c-0.27-2.72-0.17-5.6,0.56-8.54c0,0,0.77,4.44,3.26,10.44
								c0.01,0.06,0.04,0.1,0.06,0.14c0.12,0.3,0.22,0.58,0.32,0.81c0.75,1.79,1.64,3.55,2.62,5.28c0.04,0.06,0.07,0.12,0.1,0.17
								c1.35,2.34,2.88,4.63,4.5,6.85c0.03,0.04,0.06,0.07,0.09,0.12c4.69,6.4,10.06,12.1,13.72,16.75
								c0.04,0.03,0.06,0.06,0.09,0.09c0,0.01,0,0.01,0.01,0.03c-1.81-0.71-7.28-3.07-9.25-5.89c-0.01-0.01-0.04-0.04-0.06-0.07
								c0,0,0.2,6.57,2.5,8.93c2.98,3.07,6.87,3.79,9.2,3.94c0.07,0.01,0.14,0.01,0.22,0.01c0.43,0.01,0.81,0.01,1.1,0.01
								c0.09,0,0.14,0,0.2-0.01h0.23c0.12,0.45,0.17,0.9,0.16,1.27c-0.16,6.76-2.4,13.74-4.33,17.21c-1.95,3.49,0.04,7.84,1.35,9.23
								c0,0,1.97,1.72,1.98,3.75c0.01,2.04,1.55,4.41,3.6,5.15c0,0,0.38,0.49,1.01,0.98c0.56,0.43,1.35,0.85,2.26,0.94
								c0.91-0.09,1.69-0.51,2.26-0.94c0.64-0.49,1.01-0.98,1.01-0.98c2.07-0.74,3.59-3.11,3.6-5.15c0.01-2.03,1.98-3.75,1.98-3.75
								c1.3-1.39,3.3-5.75,1.35-9.23c-1.93-3.47-4.15-10.45-4.33-17.21c-0.01-0.38,0.04-0.83,0.16-1.27h0.22
								c0.07,0.01,0.14,0.01,0.22,0.01c0.29,0,0.67,0,1.1-0.01c0.07,0,0.16,0,0.23-0.01c2.33-0.14,6.21-0.87,9.2-3.94
								c2.3-2.36,2.49-8.93,2.49-8.93c-0.01,0.03-0.03,0.06-0.06,0.07c-1.97,2.82-7.44,5.18-9.25,5.89
								c0.01-0.01,0.01-0.01,0.03-0.03c0.01-0.03,0.04-0.06,0.07-0.09c9.76-12.36,22.68-23.98,23.45-40.82
								c0.14-3.02-0.14-6.06-0.61-9.06c-0.25-1.61-0.67-7.71-1.94-8.99c10.39,7.63,6.3,23.01,2.32,33
								c-1.03,2.56-2.58,4.98-3.79,7.45c-0.87,1.78-2.84,5.18-0.07,6.08c4.05,1.29,7.95-5.34,8.9-8.26c1.04-3.2,1.33-6.59,2.26-9.81
								c0.9-3.07,2.53-6.14,5.28-7.73C282.36,519.97,282.51,519.88,282.65,519.81z"/>
							<path class="st2" d="M268.32,513.42c-0.46-6.76-2.6-12.84-4.14-17.2c0,0-5.56-10.81,2.39-19.18
								c-0.14,0.05-0.29,0.1-0.43,0.16c-2.45,2.4-5.97,7.07-6.57,14.63c-0.25,3.13,0.17,6.25,1.05,9.27
								c1.63,5.74,4.16,20.56-9.49,30.61c-0.05,0.03-0.08,0.05-0.11,0.08c0.02-0.04,0.05-0.08,0.08-0.11
								c0.01-0.02,0.02-0.05,0.03-0.06h-0.01c0,0-1.52-6.16,1.49-9.01c-0.25,0.09-4.08,1.82-4.96,5.49
								c-0.02,0.08-0.04,0.13-0.04,0.13s-0.22-14.8-1.73-18.48l-4.25,17.55c0,0,1.11-28.29,0.29-30.68l-5.78,28.58l-3.56-17.57
								c-0.86,1.34-1.66,2.65-2.42,3.91c0.18,7.82,0.48,15.76,0.48,15.76l-2.83-11.7c-1.11,1.99-2.07,3.81-2.89,5.43
								c-0.22,3.89-0.26,7.21-0.26,7.21s-0.02-0.05-0.04-0.13c-0.3-1.24-0.93-2.25-1.65-3.06c-0.72,1.55-1.19,2.66-1.43,3.25
								c0,0.16-0.01,0.32-0.02,0.47c-0.06,1.62-0.37,2.86-0.37,2.86h-0.01c0.01,0.02,0.02,0.04,0.03,0.06
								c0.03,0.03,0.06,0.07,0.08,0.11c-0.03-0.03-0.06-0.05-0.11-0.08c-13.65-10.05-11.12-24.87-9.49-30.61c0-0.01,0-0.01,0-0.02
								c-1.18,1.59-3.05,2.68-5.63,2.68c-0.12,0-0.23-0.01-0.35-0.02c-0.81,2.96-1.48,6.23-1.72,9.68
								c-0.32,4.79,0.19,9.91,2.36,15.02c1.72,4.06,4.17,8.01,6.89,11.74c2.95,4.06,6.2,7.86,9.07,11.21
								c5.64,6.59,9.71,11.35,9.62,15.15c-0.16,5.87-1.79,11.85-3.52,15.82c-0.34,0.78-0.69,1.49-1.02,2.09c0,0,0,0-0.01,0.01
								c-1.49,2.72,0.15,6.31,1.09,7.37c0.47,0.43,2.44,2.38,2.46,4.85c0.01,1.49,1.19,3.2,2.53,3.69l0.45,0.16
								c0.01,0,0.01,0,0.01,0l0.29,0.38c0.23,0.3,0.94,0.99,1.75,1.23v0.08c0.07-0.01,0.14-0.02,0.21-0.04
								c0.06,0.02,0.13,0.03,0.2,0.04v-0.08c0.81-0.24,1.52-0.93,1.75-1.23l0.29-0.38c0,0,0,0,0.01,0l0.45-0.16
								c1.35-0.48,2.52-2.2,2.53-3.69c0.02-2.47,1.99-4.42,2.46-4.85c0.95-1.05,2.59-4.65,1.09-7.37c-0.02-0.01-0.02-0.01-0.02-0.01
								c-0.33-0.61-0.68-1.32-1.02-2.09c-1.73-3.96-3.36-9.95-3.52-15.82c-0.09-3.8,3.98-8.56,9.62-15.15
								c2.1-2.45,4.4-5.14,6.64-8.01c0.25-0.32,0.51-0.65,0.75-0.97c0.57-0.73,1.12-1.48,1.67-2.23c2.72-3.73,5.17-7.68,6.89-11.74
								c0.63-1.49,1.12-2.97,1.49-4.45C268.35,520.38,268.54,516.82,268.32,513.42z"/>
						</g>
					</g>
					<path class="st2" d="M422.5,542.18c0.07,0.49,2.23,16.61-1.75,30.74c-2.43,8.58-7.12,16.43-15.95,19.59
						c-23.59,8.44-24.52,27.53-24.52,27.53c10.39-9.96,28.07-9.29,35.88-8.42c2.42,0.28,3.89,0.57,3.89,0.57l-4.42,1.47l-10.05,3.33
						c-0.5,4.59-2.1,10.04-3.59,14.36c-1.5,4.36-2.88,7.57-2.88,7.57c-1.22-0.2-2.4-0.34-3.57-0.42
						c-12.96-0.91-23.3,5.05-28.42,8.79c-2.12,1.53-3.35,2.7-3.49,2.84c1.18-0.43,2.35-0.77,3.49-1.03
						c5.97-1.38,11.29-0.52,15.42,0.92c-18.91,14.17-40.54,19.97-64.64,17.27c-14.61-1.63-27.44-6.11-36.43-10.06
						c38-89.09,160.16-163.3,160.16-163.3s-47.88-66.19-141.57-39.88c-33.88,9.51-55.62,35-67.48,53.57
						c-0.86,1.34-1.66,2.65-2.42,3.91c-0.84,1.42-1.62,2.77-2.35,4.06c-1.11,1.99-2.07,3.81-2.89,5.43
						c-0.78,1.54-1.42,2.89-1.95,4.02c-0.72,1.55-1.19,2.66-1.43,3.25c-0.08,0.19-0.14,0.33-0.17,0.41l0.15,0.06l35.1,14.63
						l0.27,0.12c0.01-0.02,0.17-0.4,0.49-1.09c1.18-2.62,4.56-9.71,10.05-18.42c8.21-13.03,21.15-29.69,38.57-40.46
						c32.09-19.82,76-11.81,107.45,7.18c-93.58,44.18-143.13,130.64-144.24,133.22c38.93-80.52,121.04-129.04,121.04-129.04
						c-16.57-6.94-38-14.15-55.99-12.26c-8.76,0.92-21.47,4.65-29.35,8.63c-5.4,2.73-9.81,6.29-14.15,10.07
						c6.14-4.43,13.13-8.2,21.01-10.62c17.43-5.37,37-3.44,58.43,5.72c-38.27,29.57-108.14,91.48-131.05,164.25
						c0,0-4.38,13.9-4.38,13.9c-0.81,2.58,28.05,16.2,28.93,16.58c41.98,18.05,95.29,23.04,132.65-7.94
						c7.05-5.85,12.45-12.69,16.63-20.87c1.68-0.48,3.15-0.67,4.45-0.61c3,0.09,5.08,1.32,6.5,2.78l0.06,0.06
						c2.11,2.2,2.72,4.89,2.72,4.89c1.84-4.34,2.79-8.18,3.16-11.52c1.28-11.31-4.1-16.87-4.1-16.87c-0.57,1.18-1.16,2.25-1.78,3.22
						v-4.79c0.29-0.73,0.59-1.49,0.86-2.24c0.23-0.59,0.45-1.18,0.65-1.77c7.42-21.14,8.81-49.05,8.84-49.81
						c2.37,6.67-0.48,28.97-0.48,28.97c6.3,6.12,10.21,23.59,10.21,23.59C458.63,579.52,423.07,542.75,422.5,542.18z"/>
				</g>
			</g>
			<g>
				<g>
					<path class="st1" d="M504.25,655.99V525.31h-30.87l11.97,4.36v126.32h-32.43V509.03h58.03l6.76,5.12l6.74-5.12h36.49
						l21.56,13.43v133.53h-32.44V525.31h-18.89v130.68H504.25z"/>
					<path class="st1" d="M636,570.4h48.44l-26.12,16.28H636v53.03h33.39v-32.84l26.03-16.22l6.54-4.07v69.42h-98.51V509.03h76.97
						l21.55,13.43v9.44l-32.56,20.29v-26.87h-45.36l11.97,4.36V570.4z"/>
					<path class="st1" d="M755.44,509.03v61.55l-13.94-1.68l13.94,6.39l16.7,7.65l16.7-7.65v-66.26h11.01l21.56,13.43v55.82
						l-29.73,13.62l-2.83,1.3l-0.42,0.2v62.59h-32.56v-62.59l-0.41-0.2l-2.84-1.3l-29.72-13.62v-69.25H755.44z"/>
				</g>
			</g>
		</g>
		<path class="st2" d="M212.05,541.32c-1.77-2.27-3.24-4.59-4.5-6.85C208.9,536.82,210.43,539.1,212.05,541.32z"/>
	</g>
	<g>
		<path class="st2" d="M416.42,532.22c6.21-11.83,1.86-25.13-0.79-31.2c-1.93,4.12-4.16,8.35-6.73,12.65
			C413.66,520.34,416.42,532.22,416.42,532.22z"/>
		<path class="st2" d="M426.44,517.99c6.21-11.83,1.86-25.13-0.79-31.2c-1.93,4.12-4.16,8.35-6.73,12.65
			C423.68,506.11,426.44,517.99,426.44,517.99z"/>
		<path class="st2" d="M410.82,554.6c4.62-21.06-7.84-39.91-14.55-48.22c-1.25,7.24-2.92,14.77-5.08,22.56
			C401.46,537.29,410.82,554.6,410.82,554.6z"/>
	</g>
</g>
</svg>
