<svg id="eShBGAZLYXU1" xmlns="http://www.w3.org/2000/svg" xmlns:xlink="http://www.w3.org/1999/xlink" viewBox="0 0 1000 1000" shape-rendering="geometricPrecision" text-rendering="geometricPrecision"><g id="eShBGAZLYXU2" style="mix-blend-mode:multiply"><g><path d="M330.52,454.93c4.15-4.36-41.51-62.4-64.2-66.97.44.29,14.47,9.37,23.02,20.85c0,0-56.08-28.71-110.24,14.86c0,0,14.69-54.08,64.71-64.84c0,0-4.09,8.47-4.3,16.84c0,0,12.71.29,39.06-9.97c26.34-10.27,56.35,3.88,75.51,23.67c0,0,18.12,20.89,29.74,53.33-14.03-.49-39.21,2.42-53.3,12.23Z" fill="#1c1b1b"/><path d="M525.09,333.68c-99.81-79.39-203.29-14.01-204.76-13.06c30-1.3,53.47,18.08,53.47,18.08-28.3-15.02-69.81-22.58-99.18-6.41s-26.7,36.51-26.7,36.51c7.05,1.96,28.38-8.07,28.38-8.07c43.86-16.96,84.3,26.22,84.3,26.22c45.49,58.91,30.44,80.99,37.5,82.15c30.5.73,69.18,24.88,69.18,24.88c4.9-79.35-115.79-123.5-115.79-123.5l31.92-12.67c-9.86,5.42-25.9,13.04-25.9,13.04C514.06,417.53,543.6,509.53,543.6,509.53c4.84-90.06-79.48-118.06-79.48-118.06c31.26-1.49,73.11,31.33,73.11,31.33-25.56-87.06-117.16-95.51-117.16-95.51c52.74-20.7,104.22,5.98,105.02,6.39Z" fill="#1c1b1b"/></g><g><g><g><g><g><g><g><g><g><g><g><g><path d="M294.03,452.77c0,0-23.98-8.4-21.86-17.55.37-1.61,1.6-2.36,3.38-2.49l-1.84-.65c0,0,2.81-2.02,2.79-5.3c0,0,1.13,2.57-.84,5.11c0,0,2.99.23,4.27-1.06c0,0-1.58,4.13.18,6.39c0,0,.53-3.08,2.98-4.17c0,0,1.04,1.81,4.53,1.24s8.1-1.69,9.47-1.39c0,0,.54,1.42-.88,3.24c0,0,3.52-1.73,4.77-5.18l2.25-.74-2.8-4.16-2.63.23-1.96-.99-.76-.11c0,0-.76-.11-1.68-1.39l-.63.21-1.39,1.68-1.45-.8-2.77.1-.61-.75c0,0,5.16.1,6.96-1.2c0,0-.33-2.18-3.88-3.23-3.56-1.05-6.56-2.47-8.13-4.05c0,0-7.74-.52-14.26-4.44s-7.59-8.61-7.59-8.61.7,12.56,17.82,15.42c0,0-2.87.56-6.86-1c0,0-1.43.74-3.79.66c0,0,1.15-.23,1.7-.95c0,0-5.71-2.61-7.7-5.1c0,0,1.18,3.31,4.57,5.4l-1.91.78c0,0,5.18,2.37,7.48,2.83c0,0-1.85.2-3.45-.33c0,0-10.92,7.69-10.94,20.06-.01,9.12,6.82,14.79,11.02,17.37.01-.02,12.46-5.69,26.44-5.08Z" fill="#dda63a"/><path d="M276.07,458.12c-11.45,3.42-20.18,8.38-26.46,13.03c0,0,2.65-3.84,3.88-7.01-.45.45-14.84,15.33-20.26,17.79.61-.68,20.68-23.07,19.81-31.49c0,0-20.35,27.92-30.57,32.04l7.08-6.67c0,0,7.6-15.12,5.46-21.68c0,0-4.08,18.01-14.43,27.44-10.35,9.42-16.04,12.17-16.04,12.17l-1.53,2.76l8.41-2.32c0,0-7.64,6.5-13.26,6.21l-4.23,3.02-2.07,4.21l3.34,1.72l1.24-.78l5.56,3.76l3.91-.52c0,0,5.34,2.97,8.4,1.32c0,0-5.96-1.84-3.72-4.89s15.53-1.85,15.53-1.85-8.55,12.98-19.1,12.64c0,0,7.71,6.43,14.5,5.09c0,0-2.75-4.49.98-7.11c3.75-2.63,7.12-4.11,7.12-4.11l2.72-4.66l3.34,1.72c0,0,.17-3.94-3.17-5.92c0,0,6.17-1.42,7.38-2.88c0,0-3.95-4.49-4.07-7.9c0,0,4.68,9.34,8.68,6.83c15.13-9.49,24.3-12.62,24.98-12.92c2.1-2.55,7.06-7.99,6.96-7.96-3.24.84-12.06,6.37-13.66,7.8.13-.17,6.58-7.1,14.28-9.89.81-.29,1.65-.59,2.53-.84c8.6-8.24,19.71-16.47,32.9-21.03-9.68-1.11-22.73-1.2-36.42,2.88Zm-53.09,34.12l-3.81,2.98-1.62-2.04-2.59-.17.29-.64l11.01-1.94-3.28,1.81Z" fill="#1c1b1b"/></g></g></g></g><path d="M203.27,517.62c0,0-5.77,4.31-13.63,1.67s-12.06-.2-17.1.29-10.3-2.39-10.3-2.39s2.16,5.11,6.75,5.36c0,0-10.29,1.8-12.97-2.83-2.68-4.62-.08-9.22-.08-9.22s-4.78,4.68-2.24,10.72s12.83,6.51,12.83,6.51-6.6,4.11-11.14-.08c0,0,3.13,5.9,11.15,4.27s6.28-8.9,14.56-8.51c0,0-6.49,3.19-4.86,9.12c0,0,2.19-7.21,11.07-7.05c8.88.17,14.98-1.69,15.96-7.86Z" fill="#dda63a"/></g></g></g><g><path d="M308.28,519.81c-4.78,6.27-3.37,14.63-4.07,21.96c0,.01-.01.03-.01.04c0,.1,0,.2-.01.29-.2,2.03-.88,3.86-1.81,5.53-2.32,4.1-6.27,7.03-8.87,8.64-.06.04-.12.09-.2.13-.45.28-.84.51-1.17.68-.25.14-.45.25-.62.33-.32.17-.49.55-.42.9.1.42.51.69.94.65c4.18-.38,7.01-3.05,7.01-3.05-.36,2.42-1.66,4.12-3,5.27-.85.75-1.71,1.26-2.33,1.58-3.3,1.69,4.4,3.2,4.53.58-.09,1.85-1.78,3.23-3.47,3.95-1.69.74-3.58,1.11-5.07,2.23-1.01.77-1.77,1.82-2.49,2.88-1.09,1.58-10.91,15.26-6.32,15.82c2.91.38,5.34-1.14,5.34-1.14-.49,2.91-2.82,4.11-4.79,4.78-1.95.68-5.5,1.91-4.63,5.34.85,3.43,5.95,6.48,5.95,6.48-4.28,1.45-8.67-.48-10.29-1.33-.32-.16-.52-.29-.62-.35-.01,0-.01-.01-.03-.01l-.04.88c0,.03-.07,1.3-.07,1.3c3.23,4.04,2.75,7.6,2.75,7.6s0,0-.01-.01c-1.75-3.52-6.37-4.63-6.37-4.63l-1.26,1.23c1.27,3.39.52,5.91.52,5.91-.65-2.19-4.01-4.11-4.01-4.11s-.45.97-1.33,1.35v.12c-.07,0-.13-.03-.2-.06-.07.03-.13.06-.2.06v-.12c-.88-.38-1.33-1.35-1.33-1.35s-3.36,1.92-4.01,4.11c0,0-.75-2.52.52-5.91l-1.24-1.23c0,0-4.63,1.11-6.38,4.63-.03-.29-.36-3.72,2.75-7.58l-.07-1.27c0-.03-.06-.91-.06-.91s-.01.01-.03.01c-.1.06-.29.19-.62.35-1.62.85-6.01,2.78-10.29,1.33c0,0,5.09-3.05,5.96-6.48.85-3.43-2.68-4.66-4.65-5.34-1.95-.67-4.3-1.87-4.78-4.78c0,0,2.43,1.52,5.33,1.14c3.76-.46-1.84-9.48-2.71-11-2.06-3.66-4.91-8.08-9.25-9.18-3.07-.77-5.24-2.75-5.47-4.69c0,0,1.51,1.24,4.04,1.52.68.07,1.29-.49,1.24-1.2-.03-.39-.3-.72-.68-.91-.61-.32-1.46-.83-2.33-1.58-1.33-1.14-2.63-2.85-3-5.27c0,0,2.82,2.68,7,3.05c2.07.22.03-1.88-.61-2.23-2.78-1.51-5.37-3.44-7.4-5.88-3.72-4.5-3.95-9.58-4.33-15.14-.13-1.74-.2-3.47-.36-5.2-.09-.85.04-3.69-.45-4.56c1.59,1.65,2.36,3.92,2.87,6.17.54,2.3.84,4.67,1.77,6.85.9,2.07,2.33,3.91,4.14,5.27c1.95,1.46,5.02,2.45,6.72.06-.01-.01-.01-.01-.03-.03-.01-.01-.04-.06-.06-.1-.69-1.09-5.3-8.45-7.53-17.99v-.01c-.27-2.72-.17-5.6.56-8.54c0,0,.77,4.44,3.26,10.44.01.06.04.1.06.14.12.3.22.58.32.81.75,1.79,1.64,3.55,2.62,5.28.04.06.07.12.1.17c1.35,2.34,2.88,4.63,4.5,6.85.03.04.06.07.09.12c4.69,6.4,10.06,12.1,13.72,16.75.04.03.06.06.09.09c0,.01,0,.01.01.03-1.81-.71-7.28-3.07-9.25-5.89-.01-.01-.04-.04-.06-.07c0,0,.2,6.57,2.5,8.93c2.98,3.07,6.87,3.79,9.2,3.94.07.01.14.01.22.01.43.01.81.01,1.1.01.09,0,.14,0,.2-.01h.23c.12.45.17.9.16,1.27-.16,6.76-2.4,13.74-4.33,17.21-1.95,3.49.04,7.84,1.35,9.23c0,0,1.97,1.72,1.98,3.75.01,2.04,1.55,4.41,3.6,5.15c0,0,.38.49,1.01.98.56.43,1.35.85,2.26.94.91-.09,1.69-.51,2.26-.94.64-.49,1.01-.98,1.01-.98c2.07-.74,3.59-3.11,3.6-5.15.01-2.03,1.98-3.75,1.98-3.75c1.3-1.39,3.3-5.75,1.35-9.23-1.93-3.47-4.15-10.45-4.33-17.21-.01-.38.04-.83.16-1.27h.22c.07.01.14.01.22.01.29,0,.67,0,1.1-.01.07,0,.16,0,.23-.01c2.33-.14,6.21-.87,9.2-3.94c2.3-2.36,2.49-8.93,2.49-8.93-.01.03-.03.06-.06.07-1.97,2.82-7.44,5.18-9.25,5.89.01-.01.01-.01.03-.03.01-.03.04-.06.07-.09c9.76-12.36,22.68-23.98,23.45-40.82.14-3.02-.14-6.06-.61-9.06-.25-1.61-.67-7.71-1.94-8.99c10.39,7.63,6.3,23.01,2.32,33-1.03,2.56-2.58,4.98-3.79,7.45-.87,1.78-2.84,5.18-.07,6.08c4.05,1.29,7.95-5.34,8.9-8.26c1.04-3.2,1.33-6.59,2.26-9.81.9-3.07,2.53-6.14,5.28-7.73.13-.09.28-.18.42-.25Z" fill="#1c1b1b"/><path d="M293.95,513.42c-.46-6.76-2.6-12.84-4.14-17.2c0,0-5.56-10.81,2.39-19.18-.14.05-.29.1-.43.16-2.45,2.4-5.97,7.07-6.57,14.63-.25,3.13.17,6.25,1.05,9.27c1.63,5.74,4.16,20.56-9.49,30.61-.05.03-.08.05-.11.08.02-.04.05-.08.08-.11.01-.02.02-.05.03-.06h-.01c0,0-1.52-6.16,1.49-9.01-.25.09-4.08,1.82-4.96,5.49-.02.08-.04.13-.04.13s-.22-14.8-1.73-18.48l-4.25,17.55c0,0,1.11-28.29.29-30.68l-5.78,28.58-3.56-17.57c-.86,1.34-1.66,2.65-2.42,3.91.18,7.82.48,15.76.48,15.76l-2.83-11.7c-1.11,1.99-2.07,3.81-2.89,5.43-.22,3.89-.26,7.21-.26,7.21s-.02-.05-.04-.13c-.3-1.24-.93-2.25-1.65-3.06-.72,1.55-1.19,2.66-1.43,3.25c0,.16-.01.32-.02.47-.06,1.62-.37,2.86-.37,2.86h-.01c.01.02.02.04.03.06.03.03.06.07.08.11-.03-.03-.06-.05-.11-.08-13.65-10.05-11.12-24.87-9.49-30.61c0-.01,0-.01,0-.02-1.18,1.59-3.05,2.68-5.63,2.68-.12,0-.23-.01-.35-.02-.81,2.96-1.48,6.23-1.72,9.68-.32,4.79.19,9.91,2.36,15.02c1.72,4.06,4.17,8.01,6.89,11.74c2.95,4.06,6.2,7.86,9.07,11.21c5.64,6.59,9.71,11.35,9.62,15.15-.16,5.87-1.79,11.85-3.52,15.82-.34.78-.69,1.49-1.02,2.09c0,0,0,0-.01.01-1.49,2.72.15,6.31,1.09,7.37.47.43,2.44,2.38,2.46,4.85.01,1.49,1.19,3.2,2.53,3.69l.45.16c.01,0,.01,0,.01,0l.29.38c.23.3.94.99,1.75,1.23v.08c.07-.01.14-.02.21-.04.06.02.13.03.2.04v-.08c.81-.24,1.52-.93,1.75-1.23l.29-.38c0,0,0,0,.01,0l.45-.16c1.35-.48,2.52-2.2,2.53-3.69.02-2.47,1.99-4.42,2.46-4.85.95-1.05,2.59-4.65,1.09-7.37-.02-.01-.02-.01-.02-.01-.33-.61-.68-1.32-1.02-2.09-1.73-3.96-3.36-9.95-3.52-15.82-.09-3.8,3.98-8.56,9.62-15.15c2.1-2.45,4.4-5.14,6.64-8.01.25-.32.51-.65.75-.97.57-.73,1.12-1.48,1.67-2.23c2.72-3.73,5.17-7.68,6.89-11.74.63-1.49,1.12-2.97,1.49-4.45.94-3.62,1.13-7.18.91-10.58Z" fill="#1c1b1b"/></g></g><path d="M448.13,542.18c.07.49,2.23,16.61-1.75,30.74-2.43,8.58-7.12,16.43-15.95,19.59-23.59,8.44-24.52,27.53-24.52,27.53c10.39-9.96,28.07-9.29,35.88-8.42c2.42.28,3.89.57,3.89.57l-4.42,1.47-10.05,3.33c-.5,4.59-2.1,10.04-3.59,14.36-1.5,4.36-2.88,7.57-2.88,7.57-1.22-.2-2.4-.34-3.57-.42-12.96-.91-23.3,5.05-28.42,8.79-2.12,1.53-3.35,2.7-3.49,2.84c1.18-.43,2.35-.77,3.49-1.03c5.97-1.38,11.29-.52,15.42.92-18.91,14.17-40.54,19.97-64.64,17.27-14.61-1.63-27.44-6.11-36.43-10.06c38-89.09,160.16-163.3,160.16-163.3s-47.88-66.19-141.57-39.88c-33.88,9.51-55.62,35-67.48,53.57-.86,1.34-1.66,2.65-2.42,3.91-.84,1.42-1.62,2.77-2.35,4.06-1.11,1.99-2.07,3.81-2.89,5.43-.78,1.54-1.42,2.89-1.95,4.02-.72,1.55-1.19,2.66-1.43,3.25-.08.19-.14.33-.17.41l.15.06l35.1,14.63.27.12c.01-.02.17-.4.49-1.09c1.18-2.62,4.56-9.71,10.05-18.42c8.21-13.03,21.15-29.69,38.57-40.46c32.09-19.82,76-11.81,107.45,7.18C345.5,534.9,295.95,621.36,294.84,623.94C333.77,543.42,415.88,494.9,415.88,494.9c-16.57-6.94-38-14.15-55.99-12.26-8.76.92-21.47,4.65-29.35,8.63-5.4,2.73-9.81,6.29-14.15,10.07c6.14-4.43,13.13-8.2,21.01-10.62c17.43-5.37,37-3.44,58.43,5.72-38.27,29.57-108.14,91.48-131.05,164.25c0,0-4.38,13.9-4.38,13.9-.81,2.58,28.05,16.2,28.93,16.58c41.98,18.05,95.29,23.04,132.65-7.94c7.05-5.85,12.45-12.69,16.63-20.87c1.68-.48,3.15-.67,4.45-.61c3,.09,5.08,1.32,6.5,2.78l.06.06c2.11,2.2,2.72,4.89,2.72,4.89c1.84-4.34,2.79-8.18,3.16-11.52c1.28-11.31-4.1-16.87-4.1-16.87-.57,1.18-1.16,2.25-1.78,3.22v-4.79c.29-.73.59-1.49.86-2.24.23-.59.45-1.18.65-1.77c7.42-21.14,8.81-49.05,8.84-49.81c2.37,6.67-.48,28.97-.48,28.97c6.3,6.12,10.21,23.59,10.21,23.59c14.56-58.74-21-95.51-21.57-96.08Z" fill="#1c1b1b"/></g></g><g><g><path d="M529.88,655.99v-130.68h-30.87l11.97,4.36v126.32h-32.43v-146.96h58.03l6.76,5.12l6.74-5.12h36.49l21.56,13.43v133.53h-32.44v-130.68h-18.89v130.68h-26.92Z" fill="#dda63a"/><path d="M661.63,570.4h48.44l-26.12,16.28h-22.32v53.03h33.39v-32.84l26.03-16.22l6.54-4.07v69.42h-98.51v-146.97h76.97l21.55,13.43v9.44l-32.56,20.29v-26.87h-45.36l11.97,4.36v40.72Z" fill="#dda63a"/><path d="M781.07,509.03v61.55l-13.94-1.68l13.94,6.39l16.7,7.65l16.7-7.65v-66.26h11.01l21.56,13.43v55.82L817.31,591.9l-2.83,1.3-.42.2v62.59h-32.56v-62.59l-.41-.2-2.84-1.3-29.72-13.62v-69.25h32.54Z" fill="#dda63a"/></g></g></g><path d="M237.68,541.32c-1.77-2.27-3.24-4.59-4.5-6.85c1.35,2.35,2.88,4.63,4.5,6.85Z" fill="#1c1b1b"/></g><g><path d="M442.05,532.22c6.21-11.83,1.86-25.13-.79-31.2-1.93,4.12-4.16,8.35-6.73,12.65c4.76,6.67,7.52,18.55,7.52,18.55Z" fill="#1c1b1b"/><path d="M452.07,517.99c6.21-11.83,1.86-25.13-.79-31.2-1.93,4.12-4.16,8.35-6.73,12.65c4.77,6.67,7.52,18.55,7.52,18.55Z" fill="#1c1b1b"/><path d="M436.45,554.6c4.62-21.06-7.84-39.91-14.55-48.22-1.25,7.24-2.92,14.77-5.08,22.56c10.27,8.35,19.63,25.66,19.63,25.66Z" fill="#1c1b1b"/></g></g>
<script><![CDATA[
!function(t,n){"object"==typeof exports&&"undefined"!=typeof module?module.exports=n():"function"==typeof __SVGATOR_DEFINE__&&__SVGATOR_DEFINE__.amd?__SVGATOR_DEFINE__(n):((t="undefined"!=typeof globalThis?globalThis:t||self).__SVGATOR_PLAYER__=t.__SVGATOR_PLAYER__||{},t.__SVGATOR_PLAYER__["5c7f360c"]=n())}(this,(function(){"use strict";function t(t,n){var e=Object.keys(t);if(Object.getOwnPropertySymbols){var r=Object.getOwnPropertySymbols(t);n&&(r=r.filter((function(n){return Object.getOwnPropertyDescriptor(t,n).enumerable}))),e.push.apply(e,r)}return e}function n(n){for(var e=1;e<arguments.length;e++){var r=null!=arguments[e]?arguments[e]:{};e%2?t(Object(r),!0).forEach((function(t){o(n,t,r[t])})):Object.getOwnPropertyDescriptors?Object.defineProperties(n,Object.getOwnPropertyDescriptors(r)):t(Object(r)).forEach((function(t){Object.defineProperty(n,t,Object.getOwnPropertyDescriptor(r,t))}))}return n}function e(t){return(e="function"==typeof Symbol&&"symbol"==typeof Symbol.iterator?function(t){return typeof t}:function(t){return t&&"function"==typeof Symbol&&t.constructor===Symbol&&t!==Symbol.prototype?"symbol":typeof t})(t)}function r(t,n){if(!(t instanceof n))throw new TypeError("Cannot call a class as a function")}function i(t,n){for(var e=0;e<n.length;e++){var r=n[e];r.enumerable=r.enumerable||!1,r.configurable=!0,"value"in r&&(r.writable=!0),Object.defineProperty(t,r.key,r)}}function u(t,n,e){return n&&i(t.prototype,n),e&&i(t,e),t}function o(t,n,e){return n in t?Object.defineProperty(t,n,{value:e,enumerable:!0,configurable:!0,writable:!0}):t[n]=e,t}function a(t){return(a=Object.setPrototypeOf?Object.getPrototypeOf:function(t){return t.__proto__||Object.getPrototypeOf(t)})(t)}function l(t,n){return(l=Object.setPrototypeOf||function(t,n){return t.__proto__=n,t})(t,n)}function s(){if("undefined"==typeof Reflect||!Reflect.construct)return!1;if(Reflect.construct.sham)return!1;if("function"==typeof Proxy)return!0;try{return Boolean.prototype.valueOf.call(Reflect.construct(Boolean,[],(function(){}))),!0}catch(t){return!1}}function f(t,n,e){return(f=s()?Reflect.construct:function(t,n,e){var r=[null];r.push.apply(r,n);var i=new(Function.bind.apply(t,r));return e&&l(i,e.prototype),i}).apply(null,arguments)}function c(t,n){if(n&&("object"==typeof n||"function"==typeof n))return n;if(void 0!==n)throw new TypeError("Derived constructors may only return object or undefined");return function(t){if(void 0===t)throw new ReferenceError("this hasn't been initialised - super() hasn't been called");return t}(t)}function h(t,n,e){return(h="undefined"!=typeof Reflect&&Reflect.get?Reflect.get:function(t,n,e){var r=function(t,n){for(;!Object.prototype.hasOwnProperty.call(t,n)&&null!==(t=a(t)););return t}(t,n);if(r){var i=Object.getOwnPropertyDescriptor(r,n);return i.get?i.get.call(e):i.value}})(t,n,e||t)}function v(t){return function(t){if(Array.isArray(t))return y(t)}(t)||function(t){if("undefined"!=typeof Symbol&&null!=t[Symbol.iterator]||null!=t["@@iterator"])return Array.from(t)}(t)||function(t,n){if(!t)return;if("string"==typeof t)return y(t,n);var e=Object.prototype.toString.call(t).slice(8,-1);"Object"===e&&t.constructor&&(e=t.constructor.name);if("Map"===e||"Set"===e)return Array.from(t);if("Arguments"===e||/^(?:Ui|I)nt(?:8|16|32)(?:Clamped)?Array$/.test(e))return y(t,n)}(t)||function(){throw new TypeError("Invalid attempt to spread non-iterable instance.\nIn order to be iterable, non-array objects must have a [Symbol.iterator]() method.")}()}function y(t,n){(null==n||n>t.length)&&(n=t.length);for(var e=0,r=new Array(n);e<n;e++)r[e]=t[e];return r}Number.isInteger||(Number.isInteger=function(t){return"number"==typeof t&&isFinite(t)&&Math.floor(t)===t}),Number.EPSILON||(Number.EPSILON=2220446049250313e-31);var g=d(Math.pow(10,-6));function d(t){var n=arguments.length>1&&void 0!==arguments[1]?arguments[1]:6;if(Number.isInteger(t))return t;var e=Math.pow(10,n);return Math.round((+t+Number.EPSILON)*e)/e}function p(t,n){var e=arguments.length>2&&void 0!==arguments[2]?arguments[2]:g;return Math.abs(t-n)<e}var m=Math.PI/180;function b(t){return t}function w(t,n,e){var r=1-e;return 3*e*r*(t*r+n*e)+e*e*e}function A(){var t=arguments.length>0&&void 0!==arguments[0]?arguments[0]:0,n=arguments.length>1&&void 0!==arguments[1]?arguments[1]:0,e=arguments.length>2&&void 0!==arguments[2]?arguments[2]:1,r=arguments.length>3&&void 0!==arguments[3]?arguments[3]:1;return t<0||t>1||e<0||e>1?null:p(t,n)&&p(e,r)?b:function(i){if(i<=0)return t>0?i*n/t:0===n&&e>0?i*r/e:0;if(i>=1)return e<1?1+(i-1)*(r-1)/(e-1):1===e&&t<1?1+(i-1)*(n-1)/(t-1):1;for(var u,o=0,a=1;o<a;){var l=w(t,e,u=(o+a)/2);if(p(i,l))break;l<i?o=u:a=u}return w(n,r,u)}}function _(){return 1}function x(t){return 1===t?1:0}function k(){var t=arguments.length>0&&void 0!==arguments[0]?arguments[0]:1,n=arguments.length>1&&void 0!==arguments[1]?arguments[1]:0;if(1===t){if(0===n)return x;if(1===n)return _}var e=1/t;return function(t){return t>=1?1:(t+=n*e)-t%e}}var S=Math.sin,O=Math.cos,j=Math.acos,E=Math.asin,M=Math.tan,P=Math.atan2,I=Math.PI/180,R=180/Math.PI,F=Math.sqrt,N=function(){function t(){var n=arguments.length>0&&void 0!==arguments[0]?arguments[0]:1,e=arguments.length>1&&void 0!==arguments[1]?arguments[1]:0,i=arguments.length>2&&void 0!==arguments[2]?arguments[2]:0,u=arguments.length>3&&void 0!==arguments[3]?arguments[3]:1,o=arguments.length>4&&void 0!==arguments[4]?arguments[4]:0,a=arguments.length>5&&void 0!==arguments[5]?arguments[5]:0;r(this,t),this.m=[n,e,i,u,o,a],this.i=null,this.w=null,this.s=null}return u(t,[{key:"determinant",get:function(){var t=this.m;return t[0]*t[3]-t[1]*t[2]}},{key:"isIdentity",get:function(){if(null===this.i){var t=this.m;this.i=1===t[0]&&0===t[1]&&0===t[2]&&1===t[3]&&0===t[4]&&0===t[5]}return this.i}},{key:"point",value:function(t,n){var e=this.m;return{x:e[0]*t+e[2]*n+e[4],y:e[1]*t+e[3]*n+e[5]}}},{key:"translateSelf",value:function(){var t=arguments.length>0&&void 0!==arguments[0]?arguments[0]:0,n=arguments.length>1&&void 0!==arguments[1]?arguments[1]:0;if(!t&&!n)return this;var e=this.m;return e[4]+=e[0]*t+e[2]*n,e[5]+=e[1]*t+e[3]*n,this.w=this.s=this.i=null,this}},{key:"rotateSelf",value:function(){var t=arguments.length>0&&void 0!==arguments[0]?arguments[0]:0;if(t%=360){var n=S(t*=I),e=O(t),r=this.m,i=r[0],u=r[1];r[0]=i*e+r[2]*n,r[1]=u*e+r[3]*n,r[2]=r[2]*e-i*n,r[3]=r[3]*e-u*n,this.w=this.s=this.i=null}return this}},{key:"scaleSelf",value:function(){var t=arguments.length>0&&void 0!==arguments[0]?arguments[0]:1,n=arguments.length>1&&void 0!==arguments[1]?arguments[1]:1;if(1!==t||1!==n){var e=this.m;e[0]*=t,e[1]*=t,e[2]*=n,e[3]*=n,this.w=this.s=this.i=null}return this}},{key:"skewSelf",value:function(t,n){if(n%=360,(t%=360)||n){var e=this.m,r=e[0],i=e[1],u=e[2],o=e[3];t&&(t=M(t*I),e[2]+=r*t,e[3]+=i*t),n&&(n=M(n*I),e[0]+=u*n,e[1]+=o*n),this.w=this.s=this.i=null}return this}},{key:"resetSelf",value:function(){var t=arguments.length>0&&void 0!==arguments[0]?arguments[0]:1,n=arguments.length>1&&void 0!==arguments[1]?arguments[1]:0,e=arguments.length>2&&void 0!==arguments[2]?arguments[2]:0,r=arguments.length>3&&void 0!==arguments[3]?arguments[3]:1,i=arguments.length>4&&void 0!==arguments[4]?arguments[4]:0,u=arguments.length>5&&void 0!==arguments[5]?arguments[5]:0,o=this.m;return o[0]=t,o[1]=n,o[2]=e,o[3]=r,o[4]=i,o[5]=u,this.w=this.s=this.i=null,this}},{key:"recomposeSelf",value:function(){var t=arguments.length>0&&void 0!==arguments[0]?arguments[0]:null,n=arguments.length>1&&void 0!==arguments[1]?arguments[1]:null,e=arguments.length>2&&void 0!==arguments[2]?arguments[2]:null,r=arguments.length>3&&void 0!==arguments[3]?arguments[3]:null,i=arguments.length>4&&void 0!==arguments[4]?arguments[4]:null;return this.isIdentity||this.resetSelf(),t&&(t.x||t.y)&&this.translateSelf(t.x,t.y),n&&this.rotateSelf(n),e&&(e.x&&this.skewSelf(e.x,0),e.y&&this.skewSelf(0,e.y)),!r||1===r.x&&1===r.y||this.scaleSelf(r.x,r.y),i&&(i.x||i.y)&&this.translateSelf(i.x,i.y),this}},{key:"decompose",value:function(){var t=arguments.length>0&&void 0!==arguments[0]?arguments[0]:0,n=arguments.length>1&&void 0!==arguments[1]?arguments[1]:0,e=this.m,r=e[0]*e[0]+e[1]*e[1],i=[[e[0],e[1]],[e[2],e[3]]],u=F(r);if(0===u)return{origin:{x:d(e[4]),y:d(e[5])},translate:{x:d(t),y:d(n)},scale:{x:0,y:0},skew:{x:0,y:0},rotate:0};i[0][0]/=u,i[0][1]/=u;var o=e[0]*e[3]-e[1]*e[2]<0;o&&(u=-u);var a=i[0][0]*i[1][0]+i[0][1]*i[1][1];i[1][0]-=i[0][0]*a,i[1][1]-=i[0][1]*a;var l=F(i[1][0]*i[1][0]+i[1][1]*i[1][1]);if(0===l)return{origin:{x:d(e[4]),y:d(e[5])},translate:{x:d(t),y:d(n)},scale:{x:d(u),y:0},skew:{x:0,y:0},rotate:0};i[1][0]/=l,i[1][1]/=l,a/=l;var s=0;return i[1][1]<0?(s=j(i[1][1])*R,i[0][1]<0&&(s=360-s)):s=E(i[0][1])*R,o&&(s=-s),a=P(a,F(i[0][0]*i[0][0]+i[0][1]*i[0][1]))*R,o&&(a=-a),{origin:{x:d(e[4]),y:d(e[5])},translate:{x:d(t),y:d(n)},scale:{x:d(u),y:d(l)},skew:{x:d(a),y:0},rotate:d(s)}}},{key:"clone",value:function(){var t=this.m;return new this.constructor(t[0],t[1],t[2],t[3],t[4],t[5])}},{key:"toString",value:function(){var t=arguments.length>0&&void 0!==arguments[0]?arguments[0]:" ";if(null===this.s){var n=this.m.map((function(t){return d(t)}));1===n[0]&&0===n[1]&&0===n[2]&&1===n[3]?this.s="translate("+n[4]+t+n[5]+")":this.s="matrix("+n.join(t)+")"}return this.s}}],[{key:"create",value:function(t){return t?Array.isArray(t)?f(this,v(t)):t instanceof this?t.clone():(new this).recomposeSelf(t.origin,t.rotate,t.skew,t.scale,t.translate):new this}}]),t}();function T(t,n,e){return t>=.5?e:n}function B(t,n,e){return 0===t||n===e?n:t*(e-n)+n}function q(t,n,e){var r=B(t,n,e);return r<=0?0:r}function D(t,n,e){var r=B(t,n,e);return r<=0?0:r>=1?1:r}function L(t,n,e){return 0===t?n:1===t?e:{x:B(t,n.x,e.x),y:B(t,n.y,e.y)}}function C(t,n,e){var r=function(t,n,e){return Math.round(B(t,n,e))}(t,n,e);return r<=0?0:r>=255?255:r}function V(t,n,e){return 0===t?n:1===t?e:{r:C(t,n.r,e.r),g:C(t,n.g,e.g),b:C(t,n.b,e.b),a:B(t,null==n.a?1:n.a,null==e.a?1:e.a)}}function G(t,n){for(var e=[],r=0;r<t;r++)e.push(n);return e}function z(t,n){if(--n<=0)return t;var e=(t=Object.assign([],t)).length;do{for(var r=0;r<e;r++)t.push(t[r])}while(--n>0);return t}var Y,$=function(){function t(n){r(this,t),this.list=n,this.length=n.length}return u(t,[{key:"setAttribute",value:function(t,n){for(var e=this.list,r=0;r<this.length;r++)e[r].setAttribute(t,n)}},{key:"removeAttribute",value:function(t){for(var n=this.list,e=0;e<this.length;e++)n[e].removeAttribute(t)}},{key:"style",value:function(t,n){for(var e=this.list,r=0;r<this.length;r++)e[r].style[t]=n}}]),t}(),U=/-./g,Q=function(t,n){return n.toUpperCase()};function H(t){return"function"==typeof t?t:T}function J(t){return t?"function"==typeof t?t:Array.isArray(t)?function(t){var n=arguments.length>1&&void 0!==arguments[1]?arguments[1]:b;if(!Array.isArray(t))return n;switch(t.length){case 1:return k(t[0])||n;case 2:return k(t[0],t[1])||n;case 4:return A(t[0],t[1],t[2],t[3])||n}return n}(t,null):function(t,n){var e=arguments.length>2&&void 0!==arguments[2]?arguments[2]:b;switch(t){case"linear":return b;case"steps":return k(n.steps||1,n.jump||0)||e;case"bezier":case"cubic-bezier":return A(n.x1||0,n.y1||0,n.x2||0,n.y2||0)||e}return e}(t.type,t.value,null):null}function Z(t,n,e){var r=arguments.length>3&&void 0!==arguments[3]&&arguments[3],i=n.length-1;if(t<=n[0].t)return r?[0,0,n[0].v]:n[0].v;if(t>=n[i].t)return r?[i,1,n[i].v]:n[i].v;var u,o=n[0],a=null;for(u=1;u<=i;u++){if(!(t>n[u].t)){a=n[u];break}o=n[u]}return null==a?r?[i,1,n[i].v]:n[i].v:o.t===a.t?r?[u,1,a.v]:a.v:(t=(t-o.t)/(a.t-o.t),o.e&&(t=o.e(t)),r?[u,t,e(t,o.v,a.v)]:e(t,o.v,a.v))}function K(t,n){var e=arguments.length>2&&void 0!==arguments[2]?arguments[2]:null;return t&&t.length?"function"!=typeof n?null:("function"!=typeof e&&(e=null),function(r){var i=Z(r,t,n);return null!=i&&e&&(i=e(i)),i}):null}function W(t,n){return t.t-n.t}function X(t,n,r,i,u){var o,a="@"===r[0],l="#"===r[0],s=Y[r],f=T;switch(a?(o=r.substr(1),r=o.replace(U,Q)):l&&(r=r.substr(1)),e(s)){case"function":if(f=s(i,u,Z,J,r,a,n,t),l)return f;break;case"string":f=K(i,H(s));break;case"object":if((f=K(i,H(s.i),s.f))&&"function"==typeof s.u)return s.u(n,f,r,a,t)}return f?function(t,n,e){if(arguments.length>3&&void 0!==arguments[3]&&arguments[3])return t instanceof $?function(r){return t.style(n,e(r))}:function(r){return t.style[n]=e(r)};if(Array.isArray(n)){var r=n.length;return function(i){var u=e(i);if(null==u)for(var o=0;o<r;o++)t[o].removeAttribute(n);else for(var a=0;a<r;a++)t[a].setAttribute(n,u)}}return function(r){var i=e(r);null==i?t.removeAttribute(n):t.setAttribute(n,i)}}(n,r,f,a):null}function tt(t,n,r,i){if(!i||"object"!==e(i))return null;var u=null,o=null;return Array.isArray(i)?o=function(t){if(!t||!t.length)return null;for(var n=0;n<t.length;n++)t[n].e&&(t[n].e=J(t[n].e));return t.sort(W)}(i):(o=i.keys,u=i.data||null),o?X(t,n,r,o,u):null}function nt(t,n,e){if(!e)return null;var r=[];for(var i in e)if(e.hasOwnProperty(i)){var u=tt(t,n,i,e[i]);u&&r.push(u)}return r.length?r:null}function et(t,n){if(!n.settings.duration||n.settings.duration<0)return null;var e,r,i,u,o,a=function(t,n){if(!n)return null;var e=[];if(Array.isArray(n))for(var r=n.length,i=0;i<r;i++){var u=n[i];if(2===u.length){var o=null;if("string"==typeof u[0])o=t.getElementById(u[0]);else if(Array.isArray(u[0])){o=[];for(var a=0;a<u[0].length;a++)if("string"==typeof u[0][a]){var l=t.getElementById(u[0][a]);l&&o.push(l)}o=o.length?1===o.length?o[0]:new $(o):null}if(o){var s=nt(t,o,u[1]);s&&(e=e.concat(s))}}}else for(var f in n)if(n.hasOwnProperty(f)){var c=t.getElementById(f);if(c){var h=nt(t,c,n[f]);h&&(e=e.concat(h))}}return e.length?e:null}(t,n.elements);return a?(e=a,r=n.settings,i=r.duration,u=e.length,o=null,function(t,n){var a=r.iterations||1/0,l=(r.alternate&&a%2==0)^r.direction>0?i:0,s=t%i,f=1+(t-s)/i;n*=r.direction,r.alternate&&f%2==0&&(n=-n);var c=!1;if(f>a)s=l,c=!0,-1===r.fill&&(s=r.direction>0?0:i);else if(n<0&&(s=i-s),s===o)return!1;o=s;for(var h=0;h<u;h++)e[h](s);return c}):null}function rt(t,n){if(Y=n,!t||!t.root||!Array.isArray(t.animations))return null;var e=function(t){for(var n=document.getElementsByTagName("svg"),e=0;e<n.length;e++)if(n[e].id===t.root&&!n[e].svgatorAnimation)return n[e].svgatorAnimation=!0,n[e];return null}(t);if(!e)return null;var r=t.animations.map((function(t){return et(e,t)})).filter((function(t){return!!t}));return r.length?{svg:e,animations:r,animationSettings:t.animationSettings,options:t.options||void 0}:null}function it(t){var n=arguments.length>1&&void 0!==arguments[1]?arguments[1]:null,e=arguments.length>2&&void 0!==arguments[2]?arguments[2]:Number,r=arguments.length>3&&void 0!==arguments[3]?arguments[3]:"undefined"!=typeof BigInt&&BigInt,i="0x"+(t.replace(/[^0-9a-fA-F]+/g,"")||27);return n&&r&&e.isSafeInteger&&!e.isSafeInteger(+i)?e(r(i))%n+n:+i}function ut(t,n,e){return!t||!e||n>t.length?t:t.substring(0,n)+ut(t.substring(n+1),e,e)}function ot(t){var n=arguments.length>1&&void 0!==arguments[1]?arguments[1]:27;return!t||t%n?t%n:[0,1].includes(n)?n:ot(t/n,n)}function at(t,n,e){if(t&&t.length){var r=it(e),i=ot(r)+5,u=ut(t,ot(r,5),i);return u=u.replace(/\x7c$/g,"==").replace(/\x2f$/g,"="),u=function(t,n,e){var r=+("0x"+t.substring(0,4));t=t.substring(4);for(var i=it(n,r)%r+e%27,u=[],o=0;o<t.length;o+=2)if("|"!==t[o]){var a=+("0x"+t[o]+t[o+1])-i;u.push(a)}else{var l=+("0x"+t.substring(o+1,o+1+4))-i;o+=3,u.push(l)}return String.fromCharCode.apply(String,u)}(u=(u=atob(u)).replace(/[\x41-\x5A]/g,""),n,r),u=JSON.parse(u)}}var lt=[{key:"alternate",def:!1},{key:"fill",def:1},{key:"iterations",def:0},{key:"direction",def:1},{key:"speed",def:1},{key:"fps",def:100}],st=function(){function t(n,e){var i=this,u=arguments.length>2&&void 0!==arguments[2]?arguments[2]:null;r(this,t),this._id=0,this._running=!1,this._rollingBack=!1,this._animations=n,this._settings=e,(!u||u<"2022-05-02")&&delete this._settings.speed,lt.forEach((function(t){i._settings[t.key]=i._settings[t.key]||t.def})),this.duration=e.duration,this.offset=e.offset||0,this.rollbackStartOffset=0}return u(t,[{key:"alternate",get:function(){return this._settings.alternate}},{key:"fill",get:function(){return this._settings.fill}},{key:"iterations",get:function(){return this._settings.iterations}},{key:"direction",get:function(){return this._settings.direction}},{key:"speed",get:function(){return this._settings.speed}},{key:"fps",get:function(){return this._settings.fps}},{key:"maxFiniteDuration",get:function(){return this.iterations>0?this.iterations*this.duration:this.duration}},{key:"_apply",value:function(t){for(var n=arguments.length>1&&void 0!==arguments[1]?arguments[1]:{},e=this._animations,r=e.length,i=0,u=0;u<r;u++)n[u]?i++:(n[u]=e[u](t,1),n[u]&&i++);return i}},{key:"_rollback",value:function(t){var n=this,e=1/0,r=null;this.rollbackStartOffset=t,this._rollingBack=!0,this._running=!0;this._id=window.requestAnimationFrame((function i(u){if(n._rollingBack){null==r&&(r=u);var o=Math.round(t-(u-r)*n.speed);if(o>n.duration&&e!==1/0){var a=!!n.alternate&&o/n.duration%2>1,l=o%n.duration;o=(l+=a?n.duration:0)||n.duration}var s=(n.fps?1e3/n.fps:0)*n.speed,f=Math.max(0,o);f<=e-s&&(n.offset=f,e=f,n._apply(f));var c=n.iterations>0&&-1===n.fill&&o>=n.maxFiniteDuration;(o<=0||n.offset<o||c)&&n.stop(),n._id=window.requestAnimationFrame(i)}}))}},{key:"_start",value:function(){var t=this,n=arguments.length>0&&void 0!==arguments[0]?arguments[0]:0,e=-1/0,r=null,i={};this._running=!0;var u=function u(o){null==r&&(r=o);var a=Math.round((o-r)*t.speed+n),l=(t.fps?1e3/t.fps:0)*t.speed;if(a>=e+l&&!t._rollingBack&&(t.offset=a,e=a,t._apply(a,i)===t._animations.length))return void t.pause(!0);t._id=window.requestAnimationFrame(u)};this._id=window.requestAnimationFrame(u)}},{key:"_pause",value:function(){this._id&&window.cancelAnimationFrame(this._id),this._running=!1}},{key:"play",value:function(){if(!this._running)return this._rollingBack?this._rollback(this.offset):this._start(this.offset)}},{key:"stop",value:function(){this._pause(),this.offset=0,this.rollbackStartOffset=0,this._rollingBack=!1,this._apply(0)}},{key:"reachedToEnd",value:function(){return this.iterations>0&&this.offset>=this.iterations*this.duration}},{key:"restart",value:function(){var t=arguments.length>0&&void 0!==arguments[0]&&arguments[0];this.stop(t),this.play(t)}},{key:"pause",value:function(){this._pause()}},{key:"reverse",value:function(){this.direction=-this.direction}}],[{key:"build",value:function(t,n){delete t.animationSettings,t.options=at(t.options,t.root,"5c7f360c"),t.animations.map((function(n){n.settings=at(n.s,t.root,"5c7f360c"),delete n.s,t.animationSettings||(t.animationSettings=n.settings)}));var e=t.version;if(!(t=rt(t,n)))return null;var r=t.options||{},i=new this(t.animations,t.animationSettings,e);return{el:t.svg,options:r,player:i}}},{key:"push",value:function(t){return this.build(t)}},{key:"init",value:function(){var t=this,n=window.__SVGATOR_PLAYER__&&window.__SVGATOR_PLAYER__["5c7f360c"];Array.isArray(n)&&n.splice(0).forEach((function(n){return t.build(n)}))}}]),t}();function ft(t){return d(t)+""}function ct(t){var n=arguments.length>1&&void 0!==arguments[1]?arguments[1]:" ";return t&&t.length?t.map(ft).join(n):""}function ht(t){if(!t)return"transparent";if(null==t.a||t.a>=1){var n=function(t){return 1===(t=parseInt(t).toString(16)).length?"0"+t:t},e=function(t){return t.charAt(0)===t.charAt(1)},r=n(t.r),i=n(t.g),u=n(t.b);return e(r)&&e(i)&&e(u)&&(r=r.charAt(0),i=i.charAt(0),u=u.charAt(0)),"#"+r+i+u}return"rgba("+t.r+","+t.g+","+t.b+","+t.a+")"}function vt(t){return t?"url(#"+t+")":"none"}!function(){for(var t=0,n=["ms","moz","webkit","o"],e=0;e<n.length&&!window.requestAnimationFrame;++e)window.requestAnimationFrame=window[n[e]+"RequestAnimationFrame"],window.cancelAnimationFrame=window[n[e]+"CancelAnimationFrame"]||window[n[e]+"CancelRequestAnimationFrame"];window.requestAnimationFrame||(window.requestAnimationFrame=function(n){var e=Date.now(),r=Math.max(0,16-(e-t)),i=window.setTimeout((function(){n(e+r)}),r);return t=e+r,i},window.cancelAnimationFrame=window.clearTimeout)}();var yt={f:null,i:function(t,n,e){return 0===t?n:1===t?e:{x:q(t,n.x,e.x),y:q(t,n.y,e.y)}},u:function(t,n){return function(e){var r=n(e);t.setAttribute("rx",ft(r.x)),t.setAttribute("ry",ft(r.y))}}},gt={f:null,i:function(t,n,e){return 0===t?n:1===t?e:{width:q(t,n.width,e.width),height:q(t,n.height,e.height)}},u:function(t,n){return function(e){var r=n(e);t.setAttribute("width",ft(r.width)),t.setAttribute("height",ft(r.height))}}};Object.freeze({M:2,L:2,Z:0,H:1,V:1,C:6,Q:4,T:2,S:4,A:7});var dt={},pt=null;function mt(t){var n=function(){if(pt)return pt;if("object"!==("undefined"==typeof document?"undefined":e(document))||!document.createElementNS)return{};var t=document.createElementNS("http://www.w3.org/2000/svg","svg");return t&&t.style?(t.style.position="absolute",t.style.opacity="0.01",t.style.zIndex="-9999",t.style.left="-9999px",t.style.width="1px",t.style.height="1px",pt={svg:t}):{}}().svg;if(!n)return function(t){return null};var r=document.createElementNS(n.namespaceURI,"path");r.setAttributeNS(null,"d",t),r.setAttributeNS(null,"fill","none"),r.setAttributeNS(null,"stroke","none"),n.appendChild(r);var i=r.getTotalLength();return function(t){var n=r.getPointAtLength(i*t);return{x:n.x,y:n.y}}}function bt(t){return dt[t]?dt[t]:dt[t]=mt(t)}function wt(t,n,e,r){if(!t||!r)return!1;var i=["M",t.x,t.y];if(n&&e&&(i.push("C"),i.push(n.x),i.push(n.y),i.push(e.x),i.push(e.y)),n?!e:e){var u=n||e;i.push("Q"),i.push(u.x),i.push(u.y)}return n||e||i.push("L"),i.push(r.x),i.push(r.y),i.join(" ")}function At(t,n,e,r){var i=arguments.length>4&&void 0!==arguments[4]?arguments[4]:1,u=wt(t,n,e,r),o=bt(u);try{return o(i)}catch(t){return null}}function _t(t,n,e){return t+(n-t)*e}function xt(t,n,e){var r=arguments.length>3&&void 0!==arguments[3]&&arguments[3],i={x:_t(t.x,n.x,e),y:_t(t.y,n.y,e)};return r&&(i.a=kt(t,n)),i}function kt(t,n){return Math.atan2(n.y-t.y,n.x-t.x)}function St(t,n,e,r){var i=1-r;return i*i*t+2*i*r*n+r*r*e}function Ot(t,n,e,r){return 2*(1-r)*(n-t)+2*r*(e-n)}function jt(t,n,e,r){var i=arguments.length>4&&void 0!==arguments[4]&&arguments[4],u=At(t,n,null,e,r);return u||(u={x:St(t.x,n.x,e.x,r),y:St(t.y,n.y,e.y,r)}),i&&(u.a=Et(t,n,e,r)),u}function Et(t,n,e,r){return Math.atan2(Ot(t.y,n.y,e.y,r),Ot(t.x,n.x,e.x,r))}function Mt(t,n,e,r,i){var u=i*i;return i*u*(r-t+3*(n-e))+3*u*(t+e-2*n)+3*i*(n-t)+t}function Pt(t,n,e,r,i){var u=1-i;return 3*(u*u*(n-t)+2*u*i*(e-n)+i*i*(r-e))}function It(t,n,e,r,i){var u=arguments.length>5&&void 0!==arguments[5]&&arguments[5],o=At(t,n,e,r,i);return o||(o={x:Mt(t.x,n.x,e.x,r.x,i),y:Mt(t.y,n.y,e.y,r.y,i)}),u&&(o.a=Rt(t,n,e,r,i)),o}function Rt(t,n,e,r,i){return Math.atan2(Pt(t.y,n.y,e.y,r.y,i),Pt(t.x,n.x,e.x,r.x,i))}function Ft(t,n,e){var r=arguments.length>3&&void 0!==arguments[3]&&arguments[3];if(Tt(n)){if(Bt(e))return jt(n,e.start,e,t,r)}else if(Tt(e)){if(qt(n))return jt(n,n.end,e,t,r)}else{if(qt(n))return Bt(e)?It(n,n.end,e.start,e,t,r):jt(n,n.end,e,t,r);if(Bt(e))return jt(n,e.start,e,t,r)}return xt(n,e,t,r)}function Nt(t,n,e){var r=Ft(t,n,e,!0);return r.a=function(t){return arguments.length>1&&void 0!==arguments[1]&&arguments[1]?t+Math.PI:t}(r.a)/m,r}function Tt(t){return!t.type||"corner"===t.type}function Bt(t){return null!=t.start&&!Tt(t)}function qt(t){return null!=t.end&&!Tt(t)}var Dt=new N;var Lt={f:ft,i:B},Ct={f:ft,i:D};function Vt(t,n,e){return t.map((function(t){return function(t,n,e){var r=t.v;if(!r||"g"!==r.t||r.s||!r.v||!r.r)return t;var i=e.getElementById(r.r),u=i&&i.querySelectorAll("stop")||[];return r.s=r.v.map((function(t,n){var e=u[n]&&u[n].getAttribute("offset");return{c:t,o:e=d(parseInt(e)/100)}})),delete r.v,t}(t,0,e)}))}var Gt={gt:"gradientTransform",c:{x:"cx",y:"cy"},rd:"r",f:{x:"x1",y:"y1"},to:{x:"x2",y:"y2"}};function zt(t,n,r,i,u,o,a,l){return Vt(t,0,l),n=function(t,n,e){for(var r,i,u,o=t.length-1,a={},l=0;l<=o;l++)(r=t[l]).e&&(r.e=n(r.e)),r.v&&"g"===(i=r.v).t&&i.r&&(u=e.getElementById(i.r))&&(a[i.r]={e:u,s:u.querySelectorAll("stop")});return a}(t,i,l),function(i){var u=r(i,t,Yt);if(!u)return"none";if("c"===u.t)return ht(u.v);if("g"===u.t){if(!n[u.r])return vt(u.r);var o=n[u.r];return function(t,n){for(var e=t.s,r=e.length;r<n.length;r++){var i=e[e.length-1].cloneNode();i.id=Qt(i.id),t.e.appendChild(i),e=t.s=t.e.querySelectorAll("stop")}for(var u=0,o=e.length,a=n.length-1;u<o;u++)e[u].setAttribute("stop-color",ht(n[Math.min(u,a)].c)),e[u].setAttribute("offset",n[Math.min(u,a)].o)}(o,u.s),Object.keys(Gt).forEach((function(t){if(void 0!==u[t])if("object"!==e(Gt[t])){var n,r="gt"===t?(n=u[t],Array.isArray(n)?"matrix("+n.join(" ")+")":""):u[t],i=Gt[t];o.e.setAttribute(i,r)}else Object.keys(Gt[t]).forEach((function(n){if(void 0!==u[t][n]){var e=u[t][n],r=Gt[t][n];o.e.setAttribute(r,e)}}))})),vt(u.r)}return"none"}}function Yt(t,e,r){if(0===t)return e;if(1===t)return r;if(e&&r){var i=e.t;if(i===r.t)switch(e.t){case"c":return{t:i,v:V(t,e.v,r.v)};case"g":if(e.r===r.r){var u={t:i,s:$t(t,e.s,r.s),r:e.r};return e.gt&&r.gt&&(u.gt=function(t,n,e){var r=n.length;if(r!==e.length)return T(t,n,e);for(var i=new Array(r),u=0;u<r;u++)i[u]=B(t,n[u],e[u]);return i}(t,e.gt,r.gt)),e.c?(u.c=L(t,e.c,r.c),u.rd=q(t,e.rd,r.rd)):e.f&&(u.f=L(t,e.f,r.f),u.to=L(t,e.to,r.to)),u}}if("c"===e.t&&"g"===r.t||"c"===r.t&&"g"===e.t){var o="c"===e.t?e:r,a="g"===e.t?n({},e):n({},r),l=a.s.map((function(t){return{c:o.v,o:t.o}}));return a.s="c"===e.t?$t(t,l,a.s):$t(t,a.s,l),a}}return T(t,e,r)}function $t(t,n,e){if(n.length===e.length)return n.map((function(n,r){return Ut(t,n,e[r])}));for(var r=Math.max(n.length,e.length),i=[],u=0;u<r;u++){var o=Ut(t,n[Math.min(u,n.length-1)],e[Math.min(u,e.length-1)]);i.push(o)}return i}function Ut(t,n,e){return{o:D(t,n.o,e.o||0),c:V(t,n.c,e.c||{})}}function Qt(t){return t.replace(/-fill-([0-9]+)$/,(function(t,n){return"-fill-"+(+n+1)}))}var Ht={fill:zt,"fill-opacity":Ct,stroke:zt,"stroke-opacity":Ct,"stroke-width":Lt,"stroke-dashoffset":{f:ft,i:B},"stroke-dasharray":{f:function(t){var n=arguments.length>1&&void 0!==arguments[1]?arguments[1]:" ";return t&&t.length>0&&(t=t.map((function(t){return d(t,4)}))),ct(t,n)},i:function(t,n,e){var r,i,u,o=n.length,a=e.length;if(o!==a)if(0===o)n=G(o=a,0);else if(0===a)a=o,e=G(o,0);else{var l=(u=(r=o)*(i=a)/function(t,n){for(var e;n;)e=n,n=t%n,t=e;return t||1}(r,i))<0?-u:u;n=z(n,Math.floor(l/o)),e=z(e,Math.floor(l/a)),o=a=l}for(var s=[],f=0;f<o;f++)s.push(d(q(t,n[f],e[f])));return s}},opacity:Ct,transform:function(t,n,r,i){if(!(t=function(t,n){if(!t||"object"!==e(t))return null;var r=!1;for(var i in t)t.hasOwnProperty(i)&&(t[i]&&t[i].length?(t[i].forEach((function(t){t.e&&(t.e=n(t.e))})),r=!0):delete t[i]);return r?t:null}(t,i)))return null;var u=function(e,i,u){var o=arguments.length>3&&void 0!==arguments[3]?arguments[3]:null;return t[e]?r(i,t[e],u):n&&n[e]?n[e]:o};return n&&n.a&&t.o?function(n){var e=r(n,t.o,Nt);return Dt.recomposeSelf(e,u("r",n,B,0)+e.a,u("k",n,L),u("s",n,L),u("t",n,L)).toString()}:function(t){return Dt.recomposeSelf(u("o",t,Ft,null),u("r",t,B,0),u("k",t,L),u("s",t,L),u("t",t,L)).toString()}},r:Lt,"#size":gt,"#radius":yt,_:function(t,n){if(Array.isArray(t))for(var e=0;e<t.length;e++)this[t[e]]=n;else this[t]=n}},Jt=function(t){!function(t,n){if("function"!=typeof n&&null!==n)throw new TypeError("Super expression must either be null or a function");t.prototype=Object.create(n&&n.prototype,{constructor:{value:t,writable:!0,configurable:!0}}),n&&l(t,n)}(o,t);var n,e,i=(n=o,e=s(),function(){var t,r=a(n);if(e){var i=a(this).constructor;t=Reflect.construct(r,arguments,i)}else t=r.apply(this,arguments);return c(this,t)});function o(){return r(this,o),i.apply(this,arguments)}return u(o,null,[{key:"build",value:function(t){var n=h(a(o),"build",this).call(this,t,Ht);if(!n)return null;n.el,n.options,function(t,n,e){t.play()}(n.player)}}]),o}(st);return Jt.init(),Jt}));
(function(s,i,o,w,d,a,b){w[o]=w[o]||{};w[o][s]=w[o][s]||[];w[o][s].push(i);})('5c7f360c',{"root":"eShBGAZLYXU1","version":"2022-05-04","animations":[{"elements":{"eShBGAZLYXU2":{"opacity":[{"t":0,"v":1},{"t":1500,"v":0},{"t":3000,"v":1}]}},"s":"MXDA1ZGMwNjdhOWJhYjQdhNmI5YWViNGIzQzYK3N2Y3ODc1NzU3NTcxBUjY3YTlhZWI3YWFhOXGI5YWVPYjRiMzY3N2CY3NjcxNjdhZWI5YWFEiN2E2YjlhZVZiNGIzOYjg2NzdmNzY3MTY3YSWJVYWViMWIxNjc3ZjFc2NzE2N2E2YjFiOWFThYjdiM2E2YjlJYWE2QNzdmYWJhNktiMWI4YKWE3MTY3YjhiNWFhYWYFhOTY3N2Y3NjcxNjdWhYmI1YjhYNjc3Zjc2CNzU3NWMy"}],"options":"MTDAxMDg4MmY4MDgxNmJU3ZjgxMmY0NzJmNzlNTN2M2ZTcxSzJmOGE/B"},'__SVGATOR_PLAYER__',window,document)
]]></script>
</svg>
